<?xml version="1.0" standalone="no"?>
<!DOCTYPE svg PUBLIC "-//W3C//DTD SVG 20010904//EN"
 "http://www.w3.org/TR/2001/REC-SVG-20010904/DTD/svg10.dtd">
<svg version="1.0" xmlns="http://www.w3.org/2000/svg"
 width="512.000000pt" height="512.000000pt" viewBox="0 0 512.000000 512.000000"
 preserveAspectRatio="xMidYMid meet">

<g transform="translate(0.000000,512.000000) scale(0.100000,-0.100000)"
fill="#000000" stroke="none">
<path d="M1277 3560 c-310 -56 -577 -249 -723 -524 -84 -159 -119 -298 -119
-476 1 -181 35 -318 119 -476 265 -497 867 -675 1391 -412 103 52 260 166 359
259 l95 90 -68 92 c-38 51 -90 127 -117 170 l-48 79 -48 -56 c-135 -154 -350
-294 -515 -336 -492 -126 -917 359 -723 824 96 229 317 375 566 376 252 0 529
-170 774 -475 64 -80 92 -121 223 -321 267 -409 627 -700 985 -796 117 -31
319 -36 442 -10 311 64 562 254 703 530 81 159 111 282 111 462 0 180 -30 303
-111 462 -130 253 -342 427 -630 515 -80 24 -104 26 -258 27 -148 1 -181 -2
-259 -23 -223 -59 -431 -180 -622 -363 l-82 -79 83 -114 c45 -63 97 -138 114
-168 l30 -53 105 102 c159 155 304 244 462 284 212 54 436 -5 586 -155 74 -73
119 -145 156 -247 22 -63 26 -89 26 -188 0 -99 -4 -125 -26 -188 -56 -156
-161 -280 -297 -351 -286 -149 -607 -64 -916 244 -45 44 -110 116 -145 160
-64 80 -92 121 -223 321 -223 341 -537 624 -822 741 -146 59 -224 75 -385 79
-80 1 -167 -1 -193 -6z"/>
</g>
</svg>
